<?xml version="1.0" encoding="UTF-8"?>
<svg width="94.201mm" height="72.879mm" version="1.1" viewBox="0 0 94.201 72.879" xmlns="http://www.w3.org/2000/svg" xmlns:cc="http://creativecommons.org/ns#" xmlns:dc="http://purl.org/dc/elements/1.1/" xmlns:rdf="http://www.w3.org/1999/02/22-rdf-syntax-ns#">
 <metadata>
  <rdf:RDF>
   <cc:Work rdf:about="">
    <dc:format>image/svg+xml</dc:format>
    <dc:type rdf:resource="http://purl.org/dc/dcmitype/StillImage"/>
    <dc:title/>
   </cc:Work>
  </rdf:RDF>
 </metadata>
 <g transform="translate(-182.97 -295.78)">
  <rect x="91.946" y="54.429" width="20" height="48" stop-color="#000000" stroke-width="1.0286"/>
  <rect x="51.946" y="54.429" width="20" height="48" fill="#fff" stop-color="#000000"/>
  <g stroke-width="1.0286">
   <rect x="71.946" y="54.429" width="20" height="48" fill="#d2c2aa" stop-color="#000000"/>
   <rect x="111.95" y="54.429" width="20" height="48" fill="#1f59c9" stop-color="#000000"/>
   <rect x="131.95" y="54.429" width="20" height="48" fill="#ed1d24" stop-color="#000000"/>
  </g>
  <rect x="91.946" y="118.57" width="20" height="48" stop-color="#000000" stroke-width="1.0286"/>
  <rect x="51.946" y="118.57" width="20" height="48" fill="#fff" stop-color="#000000"/>
  <g>
   <rect x="71.946" y="118.57" width="20" height="48" fill="#d2c2aa" stop-color="#000000" stroke-width="1.0286"/>
   <rect x="111.95" y="118.57" width="30" height="48" fill="#1f59c9" stop-color="#000000" stroke-width="1.2597"/>
   <rect x="141.95" y="118.57" width="10" height="48" fill="#ed1d24" stop-color="#000000" stroke-width=".72731"/>
   <rect x="164.03" y="18.902" width="112.86" height="112.86" fill="#fff" stop-color="#000000"/>
   <rect x="276.89" y="131.76" width="112.86" height="112.86" fill="#1f59c9" stop-color="#000000"/>
   <circle cx="364.94" cy="171.37" r="15.308" fill="#d2c2aa" stop-color="#000000"/>
   <rect x="276.89" y="18.901" width="112.86" height="112.86" fill="#d2c2aa" stop-color="#000000"/>
   <rect x="164.03" y="131.76" width="112.86" height="112.86" stop-color="#000000"/>
  </g>
  <g transform="translate(0 -.037798)">
   <circle cx="251.17" cy="59.531" r="15.308" fill="#d2c2aa" stop-color="#000000"/>
   <circle cx="240.96" cy="45.168" r="10.016" fill="#1f59c9" stop-color="#000000"/>
  </g>
  <text x="179.39957" y="68.745628" font-family="'SF Pro'" font-size="11.289px" font-weight="900" stroke-width=".26458" style="line-height:1.25" xml:space="preserve"><tspan x="179.39957" y="68.745628" font-family="Raleway" font-size="11.289px" font-weight="900" stroke-width=".26458">HELLO WORLD</tspan></text>
  <text x="195.68962" y="83.948517" fill="#1f59c9" font-family="Raleway" font-size="6.35px" font-weight="300" stroke-width=".26458" style="line-height:1.25" xml:space="preserve"><tspan x="195.68962" y="83.948517">Prepare to sound</tspan><tspan x="195.68962" y="91.903854">totally awesome.</tspan></text>
  <g transform="translate(0 -4.1955)">
   <circle cx="367.2" cy="63.689" r="15.308" fill="#fff" stop-color="#000000"/>
   <circle cx="357" cy="49.326" r="10.016" fill="#1f59c9" stop-color="#000000"/>
  </g>
  <text x="292.26196" y="68.745628" font-family="'SF Pro'" font-size="11.289px" font-weight="900" stroke-width=".26458" style="line-height:1.25" xml:space="preserve"><tspan x="292.26196" y="68.745628" font-family="Raleway" font-size="11.289px" font-weight="900" stroke-width=".26458">HELLO WORLD</tspan></text>
  <g>
   <circle cx="251.17" cy="172.51" r="15.308" fill="#1f59c9" stop-color="#000000"/>
   <circle cx="240.96" cy="158.15" r="10.016" fill="#d2c2aa" stop-color="#000000"/>
   <text x="179.39958" y="179.49265" fill="#ffffff" font-family="'SF Pro'" font-size="11.289px" font-weight="900" stroke-width=".26458" style="line-height:1.25" xml:space="preserve"><tspan x="179.39958" y="179.49265" fill="#ffffff" font-family="Raleway" font-size="11.289px" font-weight="900" stroke-width=".26458">HELLO WORLD</tspan></text>
  </g>
  <text x="292.26193" y="179.49266" fill="#ffffff" font-family="'SF Pro'" font-size="11.289px" font-weight="900" stroke-width=".26458" style="line-height:1.25" xml:space="preserve"><tspan x="292.26193" y="179.49266" fill="#ffffff" font-family="Raleway" font-size="11.289px" font-weight="900" stroke-width=".26458">HELLO WORLD</tspan></text>
  <g font-family="Raleway" font-size="6.35px" font-weight="300" stroke-width=".26458">
   <text x="308.552" y="83.948517" fill="#1f59c9" style="line-height:1.25" xml:space="preserve"><tspan x="308.552" y="83.948517">Prepare to sound</tspan><tspan x="308.552" y="91.903854">totally awesome.</tspan></text>
   <text x="195.68964" y="195.82947" fill="#c9b699" style="line-height:1.25" xml:space="preserve"><tspan x="195.68964" y="195.82947">Prepare to sound</tspan><tspan x="195.68964" y="203.78481">totally awesome.</tspan></text>
   <text x="307.94858" y="195.82947" fill="#ffffff" style="line-height:1.25" xml:space="preserve"><tspan x="307.94858" y="195.82947">Prepare to sound</tspan><tspan x="307.94858" y="203.78481">totally awesome.</tspan></text>
  </g>
  <text x="206.07558" y="116.01208" font-family="'SF Pro'" font-size="8.4667px" font-weight="900" stroke-width=".26458" style="line-height:1.25" xml:space="preserve"><tspan x="206.07558" y="116.01208" fill="#ffffff" font-family="Raleway" font-size="8.4667px" font-weight="900" stroke-width=".26458">CLICK</tspan></text>
  <g transform="translate(28.348)">
   <rect x="168.68" y="102.62" width="46.869" height="19.655" fill="#ed1d24" stop-color="#000000"/>
   <text x="179.33917" y="115.6341" fill="#ffffff" font-family="'SF Pro'" font-size="8.4667px" font-weight="900" stroke-width=".26458" style="line-height:1.25" xml:space="preserve"><tspan x="179.33917" y="115.6341" fill="#ffffff" font-family="Raleway" font-size="8.4667px" font-weight="900" stroke-width=".26458">CLICK</tspan></text>
  </g>
  <g transform="translate(140.83)">
   <rect x="168.68" y="102.62" width="46.869" height="19.655" fill="#ed1d24" stop-color="#000000"/>
   <text x="179.33917" y="115.6341" fill="#ffffff" font-family="'SF Pro'" font-size="8.4667px" font-weight="900" stroke-width=".26458" style="line-height:1.25" xml:space="preserve"><tspan x="179.33917" y="115.6341" fill="#ffffff" font-family="Raleway" font-size="8.4667px" font-weight="900" stroke-width=".26458">CLICK</tspan></text>
  </g>
  <g>
   <rect x="196.65" y="213.37" width="46.869" height="19.655" fill="#ed1d24" stop-color="#000000"/>
   <text x="207.30942" y="226.38112" fill="#ffffff" font-family="'SF Pro'" font-size="8.4667px" font-weight="900" stroke-width=".26458" style="line-height:1.25" xml:space="preserve"><tspan x="207.30942" y="226.38112" fill="#ffffff" font-family="Raleway" font-size="8.4667px" font-weight="900" stroke-width=".26458">CLICK</tspan></text>
   <rect x="309.51" y="213.37" width="46.869" height="19.655" fill="#fff" stop-color="#000000"/>
   <text x="320.17181" y="226.38112" fill="#000000" font-family="'SF Pro'" font-size="8.4667px" font-weight="900" stroke-width=".26458" style="line-height:1.25" xml:space="preserve"><tspan x="320.17181" y="226.38112" fill="#000000" font-family="Raleway" font-size="8.4667px" font-weight="900" stroke-width=".26458">CLICK</tspan></text>
   <circle cx="354.73" cy="157.01" r="10.016" fill="#fff" stop-color="#000000"/>
  </g>
  <g>
   <rect x="81.265" y="198.06" width="37.42" height="54.807" fill="#fff" stop-color="#000000"/>
   <circle cx="99.975" cy="212.99" r="10.016" fill="#d2c2aa" stop-color="#000000"/>
   <circle cx="99.975" cy="237.94" r="10.016" fill="#d2c2aa" stop-color="#000000"/>
  </g>
  <g>
   <rect x="36.138" y="273.65" width="103.19" height="72.571" fill="#fff" stop-color="#000000"/>
   <g transform="translate(10.514 -1.3796)" fill="#d2c2aa">
    <rect x="36.664" y="329.22" width="8.3155" height="10.961" stop-color="#000000"/>
    <rect x="39.007" y="282.46" width="3.4018" height="48.797" stop-color="#000000"/>
   </g>
   <rect x="59.154" y="305.61" width="8.3155" height="10.961" fill="#d2c2aa" stop-color="#000000"/>
   <rect x="61.497" y="281.08" width="3.4018" height="57.49" fill="#d2c2aa" stop-color="#000000"/>
   <g transform="translate(34.466 -1.3796)" fill="#d2c2aa">
    <rect x="36.664" y="329.22" width="8.3155" height="10.961" stop-color="#000000"/>
    <rect x="39.007" y="282.46" width="3.4018" height="48.797" stop-color="#000000"/>
   </g>
   <g transform="translate(46.442 -1.3796)" fill="#d2c2aa">
    <rect x="36.664" y="329.22" width="8.3155" height="10.961" stop-color="#000000"/>
    <rect x="39.007" y="282.46" width="3.4018" height="48.797" stop-color="#000000"/>
   </g>
   <g fill="#d2c2aa">
    <rect x="95.082" y="289.21" width="8.3155" height="10.961" stop-color="#000000"/>
    <rect x="97.425" y="281.08" width="3.4018" height="57.49" stop-color="#000000"/>
    <rect x="107.06" y="311.96" width="8.3155" height="10.961" stop-color="#000000"/>
    <rect x="109.4" y="281.08" width="3.4018" height="57.49" stop-color="#000000"/>
   </g>
   <g transform="translate(82.37 -1.3796)" fill="#d2c2aa">
    <rect x="36.664" y="329.22" width="8.3155" height="10.961" stop-color="#000000"/>
    <rect x="39.007" y="282.46" width="3.4018" height="48.797" stop-color="#000000"/>
   </g>
  </g>
  <g stroke-width=".094">
   <rect x="218.25" y="365.03" width="58.924" height="3.4889" fill="#fff" stop-color="#000000"/>
   <circle transform="rotate(-72)" cx="-248.16" cy="311.34" r="36.44" fill="#fff" stop-color="#000000"/>
   <g fill="#d2c2aa">
    <circle transform="rotate(-72)" cx="-248.16" cy="311.34" r="8.7223" stop-color="#000000"/>
    <path transform="matrix(.34235 -1.0536 .76798 .24953 -106.78 482.47)" d="m232.59 362.85c-1.692 3.1021-23.392 3.6284-25.232 0.61205-1.8404-3.0164 8.5535-22.072 12.086-22.158 3.5325-0.0857 14.838 18.443 13.146 21.546z" stop-color="#000000"/>
    <path transform="matrix(-.89628 -.65119 .47464 -.65328 261.72 687.92)" d="m232.59 362.85c-1.692 3.1021-23.392 3.6284-25.232 0.61205-1.8404-3.0164 8.5535-22.072 12.086-22.158 3.5325-0.0857 14.838 18.443 13.146 21.546z" stop-color="#000000"/>
    <path transform="matrix(-.89628 .65119 -.47464 -.65328 571.25 401.9)" d="m232.59 362.85c-1.692 3.1021-23.392 3.6284-25.232 0.61205-1.8404-3.0164 8.5535-22.072 12.086-22.158 3.5325-0.0857 14.838 18.443 13.146 21.546z" stop-color="#000000"/>
    <path transform="matrix(.34235 1.0536 -.76798 .24953 394.87 18.99)" d="m232.59 362.85c-1.692 3.1021-23.392 3.6284-25.232 0.61205-1.8404-3.0164 8.5535-22.072 12.086-22.158 3.5325-0.0857 14.838 18.443 13.146 21.546z" stop-color="#000000"/>
    <path transform="matrix(1.1079 0 0 .8075 -23.738 68.413)" d="m232.59 362.85c-1.692 3.1021-23.392 3.6284-25.232 0.61205-1.8404-3.0164 8.5535-22.072 12.086-22.158 3.5325-0.0857 14.838 18.443 13.146 21.546z" stop-color="#000000"/>
   </g>
  </g>
 </g>
</svg>
